<?xml version="1.0" encoding="UTF-8" standalone="no"?>
<!-- Created with Inkscape (http://www.inkscape.org/) -->

<svg
   xmlns:dc="http://purl.org/dc/elements/1.1/"
   xmlns:cc="http://creativecommons.org/ns#"
   xmlns:rdf="http://www.w3.org/1999/02/22-rdf-syntax-ns#"
   xmlns:svg="http://www.w3.org/2000/svg"
   xmlns="http://www.w3.org/2000/svg"
   xmlns:sodipodi="http://sodipodi.sourceforge.net/DTD/sodipodi-0.dtd"
   xmlns:inkscape="http://www.inkscape.org/namespaces/inkscape"
   width="68.724091mm"
   height="65.05867mm"
   viewBox="0 0 243.51056 230.52285"
   id="svg4231"
   version="1.1"
   inkscape:version="0.91 r13725"
   sodipodi:docname="excel-icon.svg">
  <defs
     id="defs4233" />
  <sodipodi:namedview
     id="base"
     pagecolor="#ffffff"
     bordercolor="#666666"
     borderopacity="1.0"
     inkscape:pageopacity="0.0"
     inkscape:pageshadow="2"
     inkscape:zoom="1.4"
     inkscape:cx="205.92062"
     inkscape:cy="74.723015"
     inkscape:document-units="px"
     inkscape:current-layer="layer1"
     showgrid="false"
     fit-margin-top="0"
     fit-margin-left="0"
     fit-margin-right="0"
     fit-margin-bottom="0"
     inkscape:window-width="1600"
     inkscape:window-height="838"
     inkscape:window-x="-8"
     inkscape:window-y="32"
     inkscape:window-maximized="1" />
  <metadata
     id="metadata4236">
    <rdf:RDF>
      <cc:Work
         rdf:about="">
        <dc:format>image/svg+xml</dc:format>
        <dc:type
           rdf:resource="http://purl.org/dc/dcmitype/StillImage" />
        <dc:title></dc:title>
      </cc:Work>
    </rdf:RDF>
  </metadata>
  <g
     inkscape:label="Layer 1"
     inkscape:groupmode="layer"
     id="layer1"
     transform="translate(-162.27513,-55.292943)">
    <path
       style="fill:#1e6d42;fill-opacity:1"
       d="m 238.17597,260.04979 -59.55155,-10.60538 -0.22195,-78.8186 -0.22192,-78.818581 1.96066,-0.473097 c 1.07837,-0.260204 28.17205,-5.088073 60.20818,-10.728599 l 58.24749,-10.255501 0.24473,9.818104 0.24473,9.818104 43.41732,0.240753 43.4173,0.240756 1.97966,1.980221 1.97966,1.980227 0,76.021193 0,76.0212 -1.97966,1.98022 -1.97966,1.98023 -43.4447,0.2408 -43.4447,0.24081 0,9.97424 c 0,5.48584 -0.29341,9.9279 -0.65202,9.87127 -0.35861,-0.0566 -27.45022,-4.87541 -60.20357,-10.70837 z m 145.18408,-89.6004 0,-73.461392 -42.16424,0 -42.16425,0 0,6.954912 0,6.95493 14.34454,0 14.34454,0 0,9.12835 0,9.12833 -14.34454,0 -14.34454,0 0,3.47747 0,3.47746 14.34454,0 14.34454,0 0,9.12834 0,9.12833 -14.34454,0 -14.34454,0 0,3.47747 0,3.47746 14.34454,0 14.34454,0 0,9.12834 0,9.12835 -14.34454,0 -14.34454,0 0,3.47746 0,3.47745 14.34454,0 14.34454,0 0,9.12835 0,9.12834 -14.34454,0 -14.34454,0 0,3.47746 0,3.47747 14.34454,0 14.34454,0 0,8.69365 0,8.69366 -14.34454,0 -14.34454,0 0,7.38961 0,7.38961 42.16425,0 42.16424,0 0,-73.46141 z m -48.68449,49.98853 0,-8.69365 16.95264,0 16.95263,0 0,8.69365 0,8.69366 -16.95263,0 -16.95264,0 0,-8.69366 z m 0,-24.77692 0,-9.12835 16.95264,0 16.95263,0 0,9.12835 0,9.12834 -16.95263,0 -16.95264,0 0,-9.12834 z m 0,-25.21161 0,-9.12834 16.95264,0 16.95263,0 0,9.12834 0,9.12835 -16.95263,0 -16.95264,0 0,-9.12835 z m 0,-25.2116 0,-9.12834 16.95264,0 16.95263,0 0,9.12834 0,9.12833 -16.95263,0 -16.95264,0 0,-9.12833 z m 0,-25.2116 0,-9.12835 16.95264,0 16.95263,0 0,9.12835 0,9.12833 -16.95263,0 -16.95264,0 0,-9.12833 z m -73.89608,86.05892 c 0,-0.24363 -3.95046,-8.33636 -8.77881,-17.98385 l -8.7788,-17.54087 8.74349,-18.14984 8.74348,-18.1498 -5.39822,0.42779 c -2.96901,0.23529 -6.42772,0.45564 -7.68603,0.48967 -2.09082,0.0565 -2.70838,1.04058 -7.17227,11.42853 -2.68644,6.25168 -4.88445,12.00252 -4.88445,12.77968 0,2.7241 -1.49604,-0.2737 -5.23196,-10.4839 -2.06177,-5.63482 -4.17313,-10.73094 -4.6919,-11.32471 -1.07666,-1.23235 -14.41838,-0.97199 -14.41838,0.28136 0,0.40864 3.27598,7.90861 7.27996,16.66661 l 7.27995,15.92361 -8.20055,16.39427 c -4.51031,9.01684 -8.0797,16.50397 -7.93198,16.63806 0.14771,0.13408 3.41295,0.51651 7.2561,0.84984 l 6.98753,0.60604 2.47994,-5.94234 c 1.36397,-3.2683 3.78723,-9.07207 5.38504,-12.89729 1.59778,-3.8252 2.91223,-6.30869 2.92098,-5.51886 0.009,0.78983 1.73771,5.48441 3.84213,10.43239 2.10442,4.94798 4.43175,10.46339 5.17183,12.25645 l 1.34562,3.26013 7.86864,0 c 4.32776,0 7.86866,-0.19934 7.86866,-0.44297 z"
       id="path4790"
       inkscape:connector-curvature="0" />
  </g>
</svg>
