<?xml version="1.0" encoding="UTF-8" standalone="no"?>
<!-- Generator: Adobe Illustrator 16.0.3, SVG Export Plug-In . SVG Version: 6.00 Build 0)  -->

<svg
   xmlns:dc="http://purl.org/dc/elements/1.1/"
   xmlns:cc="http://creativecommons.org/ns#"
   xmlns:rdf="http://www.w3.org/1999/02/22-rdf-syntax-ns#"
   xmlns:svg="http://www.w3.org/2000/svg"
   xmlns="http://www.w3.org/2000/svg"
   xmlns:sodipodi="http://sodipodi.sourceforge.net/DTD/sodipodi-0.dtd"
   xmlns:inkscape="http://www.inkscape.org/namespaces/inkscape"
   version="1.1"
   id="Layer_1"
   x="0px"
   y="0px"
   width="83.91px"
   height="89.773px"
   viewBox="0 0 83.91 89.773"
   enable-background="new 0 0 83.91 89.773"
   xml:space="preserve"
   inkscape:version="0.91 r13725"
   sodipodi:docname="link.svg"><metadata
     id="metadata9"><rdf:RDF><cc:Work
         rdf:about=""><dc:format>image/svg+xml</dc:format><dc:type
           rdf:resource="http://purl.org/dc/dcmitype/StillImage" /><dc:title></dc:title></cc:Work></rdf:RDF></metadata><defs
     id="defs7" /><sodipodi:namedview
     pagecolor="#ffffff"
     bordercolor="#666666"
     borderopacity="1"
     objecttolerance="10"
     gridtolerance="10"
     guidetolerance="10"
     inkscape:pageopacity="0"
     inkscape:pageshadow="2"
     inkscape:window-width="1600"
     inkscape:window-height="835"
     id="namedview5"
     showgrid="false"
     inkscape:zoom="1.8588796"
     inkscape:cx="13.66295"
     inkscape:cy="49.53009"
     inkscape:window-x="-4"
     inkscape:window-y="-4"
     inkscape:window-maximized="1"
     inkscape:current-layer="Layer_1" /><path
     style="fill:#000000;fill-opacity:0.39215687;opacity:1"
     d="M 16.207509,82.747351 C 11.871256,80.777934 6.7911485,75.76206 4.5305932,71.218074 2.3186849,66.771865 2.3461356,56.6315 4.5817124,52.323127 6.8139871,48.021184 21.733077,32.989714 26.093071,30.649735 c 4.989841,-2.678018 14.614568,-2.677536 19.687842,9.81e-4 3.69702,1.951903 9.176866,7.390465 11.137094,11.05319 0.967548,1.807879 0.779932,2.301711 -1.724713,4.53961 -3.87915,3.46602 -6.424502,3.277279 -8.530059,-0.632494 -2.518499,-4.676578 -6.803722,-6.995596 -11.871376,-6.424399 -3.816565,0.430183 -4.761364,1.115425 -12.876767,9.339218 -8.473936,8.587118 -8.757991,9.00537 -8.757991,12.895216 0,4.983131 2.697738,9.248246 7.376857,11.662776 5.056135,2.609069 8.765235,1.548025 14.838709,-4.244836 l 6.764106,-6.474362 c 5.07338,1.440806 10.680012,0.850291 16.151032,-0.819464 l -11.35651,10.985104 c -4.678872,4.525853 -9.980556,9.181782 -11.975497,10.149749 -4.772918,2.315888 -13.726608,2.348023 -18.748325,0.06727 z M 42.591848,61.356153 C 36.579343,59.38448 30.329431,54.169776 27.385062,48.668162 c -0.967548,-1.807877 -0.779932,-2.301709 1.724713,-4.539608 3.87915,-3.466016 6.424502,-3.27728 8.530059,0.632495 2.5185,4.67658 6.803723,6.995598 11.871376,6.424398 3.816566,-0.430179 4.761364,-1.115428 12.876768,-9.339214 8.473935,-8.587117 8.75799,-9.005361 8.75799,-12.895211 0,-4.983134 -2.697739,-9.248249 -7.376858,-11.662772 -5.057927,-2.610001 -8.764922,-1.548373 -14.845533,4.251548 l -6.593969,6.77599 C 36.995948,27.03089 31.989971,27.401401 26.880583,28.787662 L 37.332564,17.881148 C 47.119189,7.6689256 50.769085,5.9245322 58.714697,5.9516542 c 9.24573,0.031558 16.889739,4.8240238 21.057815,13.2023528 2.360493,4.744887 2.185278,14.608327 -0.343589,19.341013 -2.334898,4.369691 -17.401868,19.318962 -21.586619,21.418006 -3.462826,1.736926 -11.915447,2.536788 -15.250456,1.443127 z"
     id="path3372"
     inkscape:connector-curvature="0"
     sodipodi:nodetypes="cssssssssssssccssccsssssssssccssssss" /></svg>